<svg xmlns="http://www.w3.org/2000/svg" width="150" height="60" viewBox="0 0 150 60"><rect width="100%" height="100%" fill="#F7FAFC"/><path fill="#A0AEC0" d="M36.565 32.485h6.44l-2.46-6.74q-.18-.45-.38-1.06-.19-.62-.39-1.33-.18.71-.38 1.33-.19.63-.38 1.09zm5.14-12.6 7.95 20.24h-2.91q-.49 0-.8-.24-.3-.25-.46-.61l-1.51-4.13h-8.39l-1.51 4.13q-.11.32-.43.58-.32.27-.8.27h-2.94l7.97-20.24zm14.31 12.6h6.44l-2.46-6.74q-.19-.45-.38-1.06-.2-.62-.39-1.33-.19.71-.38 1.33-.2.63-.38 1.09zm5.14-12.6 7.95 20.24h-2.91q-.49 0-.8-.24-.31-.25-.46-.61l-1.51-4.13h-8.39l-1.51 4.13q-.11.32-.44.58-.32.27-.79.27h-2.94l7.96-20.24zm23.95 15.47q.31 0 .55.23l1.48 1.61q-1.23 1.53-3.03 2.34t-4.32.81q-2.25 0-4.05-.77t-3.07-2.14q-1.28-1.37-1.96-3.27-.68-1.91-.68-4.16 0-2.28.73-4.18t2.05-3.27q1.33-1.37 3.16-2.14 1.83-.76 4.06-.76 2.21 0 3.93.73 1.71.73 2.92 1.9l-1.26 1.75q-.11.17-.29.3-.18.12-.48.12-.21 0-.44-.12-.22-.11-.49-.29-.26-.17-.61-.38t-.82-.39q-.46-.17-1.07-.29t-1.4-.12q-1.36 0-2.49.48t-1.94 1.4-1.26 2.24-.45 3.02q0 1.71.49 3.04.48 1.33 1.31 2.24.82.91 1.94 1.39t2.41.48q.77 0 1.39-.08.63-.09 1.15-.27.53-.18 1-.47.47-.28.93-.7.14-.13.29-.21.15-.07.32-.07m16.34-13.57-.94 1.78q-.16.29-.35.42-.19.14-.47.14-.3 0-.64-.22t-.82-.48q-.47-.27-1.11-.48-.64-.22-1.51-.22-.78 0-1.37.19t-.99.52q-.39.34-.59.81t-.2 1.03q0 .71.4 1.19.4.47 1.06.81.66.33 1.5.6t1.72.57 1.72.7 1.5 1.01q.66.6 1.06 1.49.4.88.4 2.14 0 1.37-.47 2.57-.47 1.19-1.38 2.08-.9.89-2.2 1.4t-2.98.51q-.97 0-1.91-.18-.93-.19-1.8-.54-.86-.35-1.61-.84-.76-.49-1.35-1.1l1.11-1.8q.14-.2.36-.33.23-.13.48-.13.35 0 .76.28.4.29.96.64t1.31.64q.75.28 1.8.28 1.61 0 2.49-.76t.88-2.19q0-.8-.4-1.3-.4-.51-1.05-.85-.66-.34-1.5-.58t-1.71-.52-1.71-.67-1.49-1.02q-.66-.63-1.06-1.58-.4-.94-.4-2.33 0-1.1.44-2.15t1.28-1.87q.84-.81 2.07-1.3t2.83-.49q1.79 0 3.31.56 1.51.56 2.57 1.57m7.41 15.4h3.81q1.05 0 1.76-.25t1.14-.67.62-.98q.18-.56.18-1.19 0-.66-.2-1.19-.21-.52-.66-.89t-1.16-.57q-.7-.2-1.7-.2h-3.79zm3.2-14.39h-3.2v5.85h2.99q1.94 0 2.92-.7.99-.7.99-2.23 0-1.58-.9-2.25-.89-.67-2.8-.67m-6.97-2.91h6.97q1.99 0 3.41.37 1.41.38 2.31 1.08.91.7 1.33 1.7.42.99.42 2.24 0 .71-.21 1.36t-.66 1.22q-.44.57-1.12 1.03-.67.46-1.61.78 4.17.94 4.17 4.51 0 1.29-.49 2.38t-1.43 1.88-2.31 1.24-3.14.45h-7.64z"/></svg>