<svg xmlns="http://www.w3.org/2000/svg" width="150" height="60" viewBox="0 0 150 60"><rect width="100%" height="100%" fill="#F7FAFC"/><path fill="#A0AEC0" d="M45.88 20.36h-9.63v6.02h7.59v3.1h-7.59v6.13h9.63v3.23H32.2V17.15h13.68zM52.3 28q0 1.78.48 3.2t1.37 2.4 2.16 1.51q1.27.52 2.86.52t2.86-.52q1.26-.53 2.15-1.51.88-.98 1.36-2.4t.48-3.2q0-1.79-.48-3.21-.48-1.41-1.36-2.4-.89-1-2.15-1.52-1.27-.53-2.86-.53t-2.86.53q-1.27.52-2.16 1.52-.89.99-1.37 2.4-.48 1.42-.48 3.21m13.47 9.09 5.5 6h-3.33q-.72 0-1.29-.2-.58-.2-1.06-.72l-3.18-3.51q-.77.21-1.57.32-.8.1-1.67.1-2.46 0-4.49-.83-2.02-.84-3.47-2.32t-2.24-3.52q-.8-2.03-.8-4.41 0-2.39.8-4.42.79-2.03 2.24-3.52t3.47-2.32q2.03-.83 4.49-.83 1.65 0 3.1.38 1.46.39 2.67 1.08 1.22.7 2.19 1.7.96 1 1.64 2.23.67 1.23 1.03 2.66.35 1.45.35 3.04 0 1.45-.3 2.78t-.86 2.48q-.57 1.16-1.38 2.12-.81.97-1.84 1.71m16.65-1.5q1.17 0 2.09-.4.92-.39 1.55-1.09t.97-1.71.34-2.25V17.15h4.03v12.99q0 1.94-.62 3.58T89 36.55q-1.17 1.2-2.83 1.86-1.67.67-3.75.67-2.1 0-3.77-.67-1.66-.66-2.82-1.86-1.17-1.19-1.79-2.83t-.62-3.58V17.15h4.03v12.98q0 1.24.34 2.25.34 1 .98 1.71.63.71 1.56 1.1.92.4 2.09.4m17.59-18.44v21.69h-4.05V17.15zm17.4 2.04-1 1.9q-.18.32-.38.46-.21.15-.51.15-.31 0-.68-.24-.37-.23-.88-.51-.51-.29-1.19-.52t-1.61-.23q-.84 0-1.47.2t-1.06.56-.64.86-.21 1.11q0 .76.43 1.27t1.13.87q.71.36 1.61.64.9.29 1.84.61.95.32 1.85.75t1.6 1.08q.71.65 1.13 1.6.43.95.43 2.3 0 1.46-.5 2.75-.5 1.28-1.47 2.23-.97.96-2.36 1.5-1.4.55-3.2.55-1.03 0-2.04-.2-1-.2-1.93-.58-.92-.37-1.73-.9-.81-.52-1.44-1.17l1.19-1.93q.15-.21.39-.36.24-.14.51-.14.37 0 .81.31.43.31 1.03.68.6.38 1.41.68.8.31 1.92.31 1.73 0 2.67-.82.95-.81.95-2.34 0-.86-.43-1.4t-1.13-.91q-.71-.36-1.61-.62-.9-.25-1.83-.56-.93-.29-1.83-.71t-1.6-1.1q-.71-.68-1.13-1.69-.43-1.01-.43-2.5 0-1.18.47-2.31.47-1.12 1.37-1.99t2.22-1.39q1.32-.53 3.03-.53 1.92 0 3.54.6t2.76 1.68"/></svg>