<svg xmlns="http://www.w3.org/2000/svg" width="150" height="60" viewBox="0 0 150 60"><rect width="100%" height="100%" fill="#F7FAFC"/><path fill="#A0AEC0" d="M53.545 30.055h3.02q1.11 0 1.93-.27.83-.28 1.38-.8.54-.52.81-1.26t.27-1.65q0-.87-.27-1.58-.27-.7-.81-1.2-.54-.49-1.36-.76-.83-.26-1.95-.26h-3.02zm-4.03-10.9h7.05q2.17 0 3.76.51t2.63 1.43q1.03.91 1.53 2.19.51 1.27.51 2.79 0 1.57-.53 2.88-.52 1.32-1.57 2.26t-2.63 1.47q-1.59.53-3.7.53h-3.02v7.63h-4.03zm39.04 0h3.05v21.69h-3.56v-14.01q0-.84.09-1.81l-6.55 12.31q-.47.88-1.43.88h-.57q-.96 0-1.42-.88l-6.63-12.36q.04.49.07.98.03.48.03.88v14.01h-3.55v-21.69h3.04q.27 0 .47.01.19.02.35.08t.29.2q.12.13.24.36l6.5 12.04q.25.48.47.99t.43 1.05q.21-.55.43-1.07.23-.52.48-1l6.41-12.01q.12-.23.25-.36.14-.14.29-.2.16-.06.36-.08.19-.01.46-.01m11.93 0v21.69h-4.05v-21.69z"/></svg>