<svg xmlns="http://www.w3.org/2000/svg" width="600" height="400" viewBox="0 0 600 400"><rect width="100%" height="100%" fill="#388E3C"/><path fill="#FFFFFF" d="M261.4 127.7h27v144.6h-27v-63.2h-67.9v63.2h-27V127.7h27v62.2h67.9zm86.1 68.8h16.8q7.6 0 13.25-1.9t9.3-5.25 5.45-7.95 1.8-10.1q0-11-7.25-16.9t-22.15-5.9h-17.2zm49.8 22.4 36.2 53.4h-24.3q-6.9 0-10-5.4l-30.4-46.3q-1.7-2.6-3.75-3.7t-6.05-1.1h-11.5v56.5h-26.9V127.7h44.1q14.7 0 25.25 3.05t17.3 8.55 9.95 13.15 3.2 16.85q0 7.3-2.15 13.8t-6.2 11.8-10 9.3-13.55 6.3q2.6 1.5 4.8 3.55t4 4.85"/></svg>