<svg xmlns="http://www.w3.org/2000/svg" width="600" height="400" viewBox="0 0 600 400"><rect width="100%" height="100%" fill="#1976D2"/><path fill="#FFFFFF" d="M149.645 196.23q0 3.74-1.25 6.86-1.24 3.13-3.5 5.38-2.25 2.26-5.43 3.5-3.17 1.25-7.05 1.25h-12.94v-33.98h12.94q3.88 0 7.05 1.26 3.18 1.25 5.43 3.5 2.26 2.24 3.5 5.37 1.25 3.12 1.25 6.86m-6.49 0q0-2.8-.74-5.02t-2.14-3.76q-1.39-1.54-3.38-2.36t-4.48-.82h-6.6v23.92h6.6q2.49 0 4.48-.82t3.38-2.36q1.4-1.54 2.14-3.76t.74-5.02m11.33-7.12h5.83v24.11h-5.83zm6.63-7.03q0 .75-.31 1.41-.3.66-.81 1.15-.5.5-1.19.79-.68.29-1.45.29-.75 0-1.42-.29t-1.17-.79q-.49-.49-.78-1.15-.3-.66-.3-1.41 0-.77.3-1.45.29-.69.78-1.18.5-.49 1.17-.79.67-.29 1.42-.29.77 0 1.45.29.69.3 1.19.79.51.49.81 1.18.31.68.31 1.45m13.93 18.5q1.08 0 1.88-.3.8-.29 1.33-.81.53-.51.8-1.24t.27-1.6q0-1.79-1.07-2.83-1.07-1.05-3.21-1.05t-3.2 1.05q-1.07 1.04-1.07 2.83 0 .85.27 1.57.27.73.8 1.26.52.53 1.33.82.82.3 1.87.3m6.56 13.72q0-.7-.42-1.15-.43-.45-1.16-.69-.72-.25-1.7-.37-.97-.12-2.07-.17-1.09-.06-2.25-.11-1.17-.05-2.27-.19-.96.54-1.56 1.27t-.6 1.69q0 .64.31 1.19.32.55 1.02.95.69.4 1.79.62 1.11.23 2.71.23 1.62 0 2.79-.25 1.18-.25 1.94-.68.76-.44 1.12-1.03.35-.6.35-1.31m-1.15-24.37h6.93v2.16q0 1.04-1.25 1.27l-2.16.4q.5 1.25.5 2.73 0 1.78-.72 3.23-.72 1.44-1.99 2.46-1.27 1.01-2.99 1.56-1.73.55-3.73.55-.7 0-1.36-.07t-1.29-.19q-1.13.68-1.13 1.53 0 .73.67 1.07t1.77.48q1.11.14 2.52.18 1.41.03 2.89.15t2.89.41 2.51.93q1.11.63 1.78 1.73.67 1.09.67 2.8 0 1.6-.79 3.11-.79 1.5-2.28 2.68-1.49 1.17-3.67 1.89-2.17.71-4.94.71-2.73 0-4.75-.53-2.02-.52-3.36-1.41-1.34-.88-2-2.03t-.66-2.39q0-1.7 1.03-2.84 1.02-1.14 2.81-1.82-.97-.49-1.53-1.31-.57-.83-.57-2.17 0-.54.2-1.11.2-.58.59-1.14.39-.57.98-1.07.58-.51 1.38-.91-1.83-.98-2.88-2.63-1.04-1.64-1.04-3.85 0-1.79.72-3.23.71-1.45 1.99-2.47t3.03-1.56 3.82-.54q1.55 0 2.92.31 1.36.32 2.49.93m10.78-.82h5.83v24.11h-5.83zm6.63-7.03q0 .75-.3 1.41-.31.66-.81 1.15-.51.5-1.19.79t-1.46.29q-.75 0-1.42-.29t-1.16-.79q-.5-.49-.79-1.15t-.29-1.41q0-.77.29-1.45.29-.69.79-1.18.49-.49 1.16-.79.67-.29 1.42-.29.78 0 1.46.29.68.3 1.19.79.5.49.81 1.18.3.68.3 1.45m13.16 31.52q-3.15 0-4.83-1.78-1.68-1.77-1.68-4.9v-13.46h-2.47q-.47 0-.79-.31-.33-.3-.33-.92v-2.3l3.87-.63 1.23-6.58q.11-.47.44-.73t.85-.26h3.01v7.59h6.44v4.14h-6.44v13.06q0 1.13.55 1.77.55.63 1.51.63.54 0 .91-.13.36-.13.63-.27t.49-.27q.21-.13.42-.13.26 0 .42.13.17.13.35.39l1.74 2.82q-1.27 1.06-2.91 1.6-1.65.54-3.41.54m22.19-6.61v-4.06q-2.52.11-4.23.43-1.72.32-2.75.81-1.04.5-1.48 1.15-.45.66-.45 1.44 0 1.53.9 2.18.91.66 2.37.66 1.78 0 3.09-.65 1.3-.64 2.55-1.96m-12.27-12.66-1.04-1.86q4.16-3.81 10.02-3.81 2.11 0 3.78.7 1.67.69 2.82 1.92 1.15 1.24 1.75 2.95.6 1.72.6 3.76v15.23h-2.63q-.83 0-1.27-.25-.45-.24-.71-1l-.51-1.73q-.92.82-1.79 1.44t-1.81 1.05q-.94.42-2.01.64-1.07.23-2.36.23-1.53 0-2.82-.42-1.29-.41-2.23-1.23t-1.46-2.04q-.52-1.23-.52-2.85 0-.91.31-1.82.3-.9 1-1.73.69-.82 1.79-1.55 1.11-.72 2.72-1.27 1.61-.54 3.75-.88t4.89-.41v-1.41q0-2.42-1.04-3.58-1.03-1.17-2.98-1.17-1.41 0-2.34.33t-1.63.74q-.71.42-1.29.74-.57.33-1.28.33-.61 0-1.03-.31-.42-.32-.68-.74m23.45-16.03h5.81v34.92h-5.81zm56.03.94h4.77v33.98h-5.57v-21.95q0-1.32.14-2.84l-10.27 19.29q-.73 1.39-2.23 1.39h-.9q-1.5 0-2.23-1.39l-10.39-19.36q.07.77.12 1.52.05.76.05 1.39v21.95h-5.57v-33.98h4.77q.42 0 .73.02.3.03.55.12t.45.31q.2.21.38.56l10.18 18.87q.4.75.74 1.55t.67 1.65q.33-.87.68-1.68t.75-1.57l10.04-18.82q.18-.35.4-.56.21-.22.45-.31.25-.09.56-.12.3-.02.73-.02m24.15 27.75v-4.06q-2.51.11-4.23.43-1.71.32-2.75.81-1.03.5-1.48 1.15-.44.66-.44 1.44 0 1.53.9 2.18.91.66 2.36.66 1.79 0 3.09-.65 1.31-.64 2.55-1.96m-12.26-12.66-1.04-1.86q4.16-3.81 10.01-3.81 2.12 0 3.79.7 1.67.69 2.82 1.92 1.15 1.24 1.75 2.95.6 1.72.6 3.76v15.23h-2.64q-.82 0-1.26-.25-.45-.24-.71-1l-.52-1.73q-.91.82-1.78 1.44t-1.81 1.05q-.94.42-2.01.64-1.07.23-2.36.23-1.53 0-2.82-.42-1.3-.41-2.24-1.23t-1.45-2.04q-.52-1.23-.52-2.85 0-.91.31-1.82.3-.9 1-1.73.69-.82 1.79-1.55 1.11-.72 2.72-1.27 1.61-.54 3.75-.88 2.13-.34 4.88-.41v-1.41q0-2.42-1.03-3.58-1.03-1.17-2.99-1.17-1.41 0-2.33.33-.93.33-1.64.74-.7.42-1.28.74-.57.33-1.28.33-.61 0-1.03-.31-.43-.32-.68-.74m28.5-3.76.35 2.72q1.13-2.16 2.68-3.39 1.55-1.24 3.67-1.24 1.67 0 2.68.73l-.38 4.35q-.12.42-.34.6-.22.17-.6.17-.35 0-1.04-.11-.7-.12-1.35-.12-.97 0-1.72.28t-1.35.81-1.06 1.28-.86 1.72v14.85h-5.8v-24.11h3.41q.89 0 1.24.32.35.31.47 1.14m12.41-12.27h5.8v20h1.09q.58 0 .92-.16.34-.15.7-.62l5.99-7.4q.38-.49.83-.75.46-.26 1.19-.26h5.31l-7.5 8.95q-.79 1.06-1.73 1.62.49.36.88.83.38.47.74 1.01l8.03 11.7h-5.24q-.68 0-1.17-.22-.49-.23-.82-.81l-6.16-9.15q-.33-.54-.68-.7t-1.06-.16h-1.32v11.04h-5.8zm29.7 20.09h10.95q0-1.13-.31-2.13-.32-.99-.95-1.75-.64-.75-1.61-1.18-.98-.44-2.27-.44-2.52 0-3.96 1.44-1.45 1.43-1.85 4.06m14.81 3.5h-14.92q.14 1.86.65 3.21.52 1.35 1.37 2.23.84.88 2.01 1.32 1.16.43 2.57.43t2.43-.32q1.02-.33 1.79-.73.76-.4 1.34-.73.57-.33 1.11-.33.73 0 1.08.54l1.67 2.11q-.96 1.13-2.16 1.9-1.2.76-2.5 1.22-1.31.46-2.66.64-1.35.19-2.62.19-2.51 0-4.67-.83-2.17-.84-3.76-2.47-1.6-1.63-2.52-4.04-.91-2.41-.91-5.58 0-2.47.79-4.64.8-2.18 2.3-3.79 1.49-1.61 3.64-2.55t4.85-.94q2.28 0 4.21.73 1.92.73 3.31 2.13t2.17 3.43q.79 2.03.79 4.64 0 1.32-.28 1.77-.28.46-1.08.46m13.75 11.71q-3.15 0-4.83-1.78-1.68-1.77-1.68-4.9v-13.46h-2.47q-.47 0-.8-.31-.33-.3-.33-.92v-2.3l3.88-.63 1.22-6.58q.12-.47.45-.73t.84-.26h3.01v7.59h6.44v4.14h-6.44v13.06q0 1.13.55 1.77.56.63 1.52.63.54 0 .9-.13.37-.13.64-.27t.48-.27.42-.13q.26 0 .43.13.16.13.35.39l1.74 2.82q-1.27 1.06-2.92 1.6-1.64.54-3.4.54m9.63-24.49h5.83v24.11h-5.83zm6.63-7.03q0 .75-.31 1.41-.3.66-.81 1.15-.5.5-1.18.79-.69.29-1.46.29-.75 0-1.42-.29t-1.17-.79q-.49-.49-.78-1.15-.3-.66-.3-1.41 0-.77.3-1.45.29-.69.78-1.18.5-.49 1.17-.79.67-.29 1.42-.29.77 0 1.46.29.68.3 1.18.79.51.49.81 1.18.31.68.31 1.45m10.15 8.09.4 1.9q.73-.73 1.54-1.35t1.71-1.06q.91-.43 1.94-.68 1.04-.25 2.26-.25 1.97 0 3.5.67t2.55 1.88 1.55 2.89.53 3.7v15.35h-5.8v-15.35q0-2.2-1.01-3.41-1.02-1.22-3.08-1.22-1.51 0-2.82.69-1.32.68-2.49 1.85v17.44h-5.81v-24.11h3.55q1.13 0 1.48 1.06m30.29 10.41q1.08 0 1.88-.3.8-.29 1.33-.81.53-.51.8-1.24t.27-1.6q0-1.79-1.07-2.83-1.07-1.05-3.21-1.05t-3.21 1.05q-1.07 1.04-1.07 2.83 0 .85.28 1.57.27.73.79 1.26.53.53 1.34.82.81.3 1.87.3m6.56 13.72q0-.7-.42-1.15-.43-.45-1.16-.69-.72-.25-1.7-.37t-2.07-.17q-1.09-.06-2.25-.11-1.17-.05-2.27-.19-.97.54-1.56 1.27-.6.73-.6 1.69 0 .64.31 1.19.32.55 1.01.95.7.4 1.8.62 1.11.23 2.7.23 1.63 0 2.8-.25 1.18-.25 1.94-.68.76-.44 1.12-1.03.35-.6.35-1.31m-1.15-24.37h6.93v2.16q0 1.04-1.25 1.27l-2.16.4q.5 1.25.5 2.73 0 1.78-.72 3.23-.72 1.44-1.99 2.46-1.27 1.01-2.99 1.56-1.73.55-3.73.55-.7 0-1.36-.07t-1.29-.19q-1.13.68-1.13 1.53 0 .73.67 1.07t1.77.48q1.11.14 2.52.18 1.41.03 2.89.15t2.89.41 2.51.93q1.11.63 1.78 1.73.67 1.09.67 2.8 0 1.6-.79 3.11-.79 1.5-2.28 2.68-1.49 1.17-3.67 1.89-2.17.71-4.94.71-2.73 0-4.75-.53-2.02-.52-3.36-1.41-1.34-.88-2-2.03t-.66-2.39q0-1.7 1.03-2.84 1.02-1.14 2.8-1.82-.96-.49-1.52-1.31-.57-.83-.57-2.17 0-.54.2-1.11.2-.58.59-1.14.39-.57.98-1.07.58-.51 1.38-.91-1.83-.98-2.88-2.63-1.04-1.64-1.04-3.85 0-1.79.71-3.23.72-1.45 2-2.47t3.03-1.56 3.82-.54q1.55 0 2.92.31 1.36.32 2.49.93"/></svg>