<svg xmlns="http://www.w3.org/2000/svg" width="600" height="400" viewBox="0 0 600 400"><rect width="100%" height="100%" fill="#D32F2F"/><path fill="#FFFFFF" d="M174.95 172.88h7.82v55.67h-9.13v-35.96q0-2.16.24-4.66l-16.83 31.61q-1.19 2.27-3.66 2.27h-1.46q-2.46 0-3.66-2.27l-17.01-31.72q.11 1.27.19 2.5t.08 2.27v35.96h-9.13v-55.67h7.82q.69 0 1.19.04t.9.19q.41.15.74.5.32.35.63.92l16.67 30.92q.66 1.23 1.21 2.54.56 1.31 1.1 2.7.54-1.43 1.12-2.76t1.23-2.56l16.44-30.84q.31-.57.65-.92.35-.35.75-.5.41-.15.91-.19t1.19-.04m19.02 16.17h9.55v39.5h-9.55zm10.86-11.51q0 1.23-.5 2.31t-1.33 1.88q-.83.81-1.94 1.29-1.12.48-2.39.48-1.23 0-2.33-.48t-1.91-1.29q-.8-.8-1.29-1.88-.48-1.08-.48-2.31 0-1.27.48-2.39.49-1.12 1.29-1.92.81-.81 1.91-1.29 1.1-.49 2.33-.49 1.27 0 2.39.49 1.11.48 1.94 1.29.83.8 1.33 1.92t.5 2.39m16.63 13.24.66 3.12q1.19-1.19 2.52-2.21t2.81-1.74q1.48-.71 3.17-1.11 1.7-.41 3.7-.41 3.23 0 5.74 1.1 2.5 1.1 4.17 3.08 1.68 1.98 2.54 4.74.87 2.75.87 6.06v25.14h-9.51v-25.14q0-3.62-1.65-5.6-1.66-1.99-5.05-1.99-2.46 0-4.62 1.12-2.15 1.12-4.08 3.04v28.57h-9.51v-39.5h5.82q1.84 0 2.42 1.73m35.5-1.73h9.55v39.5h-9.55zm10.86-11.51q0 1.23-.51 2.31-.5 1.08-1.32 1.88-.83.81-1.95 1.29-1.11.48-2.38.48-1.24 0-2.33-.48-1.1-.48-1.91-1.29-.81-.8-1.29-1.88t-.48-2.31q0-1.27.48-2.39t1.29-1.92q.81-.81 1.91-1.29 1.09-.49 2.33-.49 1.27 0 2.38.49 1.12.48 1.95 1.29.82.8 1.32 1.92.51 1.12.51 2.39m8.08 31.72v-7.93h19.94v7.93zm83.08-36.38h7.82v55.67h-9.13v-35.96q0-2.16.24-4.66l-16.83 31.61q-1.19 2.27-3.66 2.27h-1.46q-2.46 0-3.66-2.27l-17.01-31.72q.11 1.27.19 2.5t.08 2.27v35.96h-9.13v-55.67h7.82q.69 0 1.19.04t.9.19q.41.15.74.5.32.35.63.92l16.67 30.92q.66 1.23 1.21 2.54.56 1.31 1.1 2.7.54-1.43 1.12-2.76t1.23-2.56l16.44-30.84q.31-.57.65-.92.35-.35.75-.5.41-.15.91-.19t1.19-.04m30.57 47.59h10.47q2.89 0 4.86-.7 1.96-.69 3.13-1.85 1.18-1.15 1.7-2.69t.52-3.27q0-1.81-.58-3.26-.58-1.44-1.81-2.46t-3.18-1.56q-1.94-.54-4.67-.54h-10.44zm8.82-39.58h-8.82v16.09h8.24q5.31 0 8.03-1.92 2.71-1.93 2.71-6.13 0-4.35-2.46-6.19-2.47-1.85-7.7-1.85m-19.17-8.01h19.17q5.47 0 9.35 1.04 3.89 1.04 6.38 2.96 2.48 1.93 3.63 4.66 1.16 2.74 1.16 6.16 0 1.97-.58 3.76t-1.79 3.34q-1.21 1.56-3.08 2.83-1.87 1.28-4.45 2.16 11.48 2.58 11.48 12.4 0 3.54-1.35 6.54-1.35 3.01-3.93 5.18-2.58 2.18-6.35 3.41t-8.62 1.23H379.2zm62.4 34.65h17.71l-6.77-18.52q-.5-1.23-1.04-2.93-.54-1.69-1.08-3.65-.5 1.96-1.04 3.67-.54 1.72-1.04 2.99zm14.13-34.65 21.87 55.67h-8.01q-1.34 0-2.19-.67-.85-.68-1.27-1.68l-4.16-11.36h-23.06l-4.16 11.36q-.31.89-1.19 1.62-.89.73-2.2.73h-8.08l21.9-55.67z"/></svg>